PathFileType	4	(X/Y/Z)	./resultDataOpenSim/trcMotMarkerGrf/sub10/qtm-02-05.trc
DataRate	CameraRate	NumFrames	NumMarkers	Units	OrigDataRate	OrigDataStartFrame	OrigNumFrames
250.000000	250.000000	12	24	m	250.000000	458	523
Frame#	Time	L.Toe.Tip			R.Toe.Tip			L.Ankle.Lat			R.Ankle.Lat			L.Ankle.Med			R.Ankle.Med			L.Heel			R.Heel			L.Knee.Lat			R.Knee.Lat			L.Knee.Med			R.Knee.Med			L.Thigh.Upper			R.Thigh.Upper			L.ASIS			R.ASIS			V.Sacral			L.Acromium			R.Acromium			C7			L.Elbow			R.Elbow			L.Wrist.Lat			R.Wrist.Lat
		X1	Y1	Z1	X2	Y2	Z2	X3	Y3	Z3	X4	Y4	Z4	X5	Y5	Z5	X6	Y6	Z6	X7	Y7	Z7	X8	Y8	Z8	X9	Y9	Z9	X10	Y10	Z10	X11	Y11	Z11	X12	Y12	Z12	X13	Y13	Z13	X14	Y14	Z14	X15	Y15	Z15	X16	Y16	Z16	X17	Y17	Z17	X18	Y18	Z18	X19	Y19	Z19	X20	Y20	Z20	X21	Y21	Z21	X22	Y22	Z22	X23	Y23	Z23	X24	Y24	Z24

458	1.828	1.6240787	0.060071211	-0.10483405	0.83256668	0.037643164	0.065226358	1.4891408	0.066617922	-0.1249422	0.72938837	0.12663738	0.11146183	1.5019692	0.091811534	-0.043340313	0.75705813	0.1375964	0.027365601	1.4305925	0.030257559	-0.077635889	0.6719333	0.13294051	0.067047763	1.4168116	0.45096562	-0.15348803	0.99270875	0.43161808	0.12604368	1.4373668	0.42779006	-0.034278489	1.015363	0.42197622	-0.00053188295	1.2601905	0.79535725	-0.20925272	1.130629	0.81601932	0.16234773	1.2897564	0.90243392	-0.12798691	1.2612207	0.89399094	0.1093061	1.0680356	0.91060225	-0.059786119	1.1659985	1.3729418	-0.18001246	1.1617664	1.3663224	0.14293167	1.0781907	1.3915295	-0.023582732	1.0023957	1.0809926	-0.2540959	1.2234114	1.0110408	0.18238687	1.0385567	0.84644775	-0.29719319	1.4646991	0.95167946	0.19771983
459	1.832	1.6253388	0.05706109	-0.10503332	0.83331292	0.037506073	0.06517254	1.4903565	0.066344655	-0.12523911	0.73288561	0.12958167	0.11165672	1.5039802	0.091727278	-0.043678548	0.76140777	0.13971815	0.027886622	1.4312923	0.030995145	-0.077880303	0.67607604	0.13706956	0.066877184	1.4241711	0.45199841	-0.1543559	0.99908386	0.43195533	0.12553264	1.4439909	0.42905482	-0.034716857	1.0220202	0.42187847	-0.00080915693	1.2684536	0.79670737	-0.21017163	1.1390442	0.81519879	0.16182192	1.2968584	0.9027532	-0.12834024	1.269415	0.8935891	0.10804055	1.0752801	0.91139848	-0.06066106	1.1720693	1.3731364	-0.18131989	1.1684991	1.3669855	0.14167455	1.0846947	1.3917614	-0.024873877	1.0092398	1.0805742	-0.25474354	1.2283046	1.0113735	0.17952939	1.0462354	0.84612147	-0.29775733	1.4692804	0.95099009	0.19629687
460	1.836	1.6266697	0.054312344	-0.10481429	0.83404818	0.037356139	0.065099939	1.4915874	0.06604994	-0.12546916	0.73646964	0.1324919	0.11175464	1.5057162	0.091640979	-0.043947528	0.76610825	0.14178286	0.028394359	1.4320007	0.031665031	-0.078211494	0.6805462	0.14120435	0.066580418	1.4313848	0.45294726	-0.15522864	1.0057564	0.432247	0.12503298	1.4505922	0.43032289	-0.035152136	1.0289681	0.42171354	-0.0010349045	1.2766137	0.79818826	-0.2111027	1.1481825	0.81419482	0.16143952	1.3040019	0.90312994	-0.12866411	1.2771213	0.8932436	0.10684589	1.082385	0.91225045	-0.061532764	1.1781384	1.3733678	-0.18260518	1.1752676	1.3677048	0.14039844	1.0912184	1.3920251	-0.026118119	1.0161509	1.0801512	-0.25536386	1.2331074	1.0117423	0.17671674	1.0540452	0.84581221	-0.29832298	1.4737481	0.95024083	0.19488203
461	1.84	1.6281578	0.051965713	-0.1042593	0.8347778	0.037196798	0.065017308	1.4928955	0.065792742	-0.12558236	0.74025565	0.13540824	0.11175248	1.5072242	0.091542907	-0.044085601	0.77113729	0.14375569	0.028883267	1.4327372	0.032286176	-0.078562259	0.68535146	0.1453262	0.066119238	1.4383668	0.45378066	-0.15606439	1.0127541	0.43248167	0.12456017	1.4571451	0.43152697	-0.035536786	1.0362371	0.42145437	-0.0012242915	1.2846367	0.79976201	-0.21202307	1.157409	0.81321116	0.1611251	1.3111835	0.90358875	-0.12895857	1.2843747	0.89295513	0.1057046	1.0892337	0.91315663	-0.062412752	1.1842044	1.3736266	-0.18386754	1.182062	1.3684682	0.13910893	1.0977409	1.3923044	-0.027309602	1.0231176	1.0797224	-0.25596416	1.2378609	1.0121396	0.17391792	1.0619725	0.84551284	-0.29888591	1.4781092	0.94942706	0.1934793
462	1.844	1.6297606	0.05002769	-0.10358224	0.83553775	0.037039923	0.064951538	1.4942647	0.065623161	-0.12555642	0.74434109	0.13835009	0.11165974	1.5085943	0.091424037	-0.04406499	0.7764764	0.14560493	0.029341369	1.4334849	0.032866939	-0.078825754	0.69051037	0.14941416	0.065465994	1.4450836	0.45448318	-0.15684129	1.020063	0.43265233	0.12414473	1.4635577	0.43261133	-0.035828019	1.0438444	0.42107503	-0.0013753625	1.292505	0.80139271	-0.21291955	1.1660865	0.81240489	0.16077627	1.3183944	0.90415371	-0.12923006	1.2912312	0.89272015	0.10460203	1.0958646	0.91406796	-0.063279426	1.1902738	1.373907	-0.18510766	1.1888643	1.3692641	0.13780893	1.1042438	1.3925906	-0.028444294	1.0301242	1.0792854	-0.25655187	1.2426406	1.0125557	0.17110436	1.0700102	0.8452228	-0.29943949	1.4823704	0.94854653	0.19208734
463	1.848	1.6313403	0.04840479	-0.1029896	0.83638711	0.036902494	0.064934661	1.4955956	0.065547886	-0.12540652	0.74872984	0.14128429	0.11148653	1.509882	0.091269239	-0.04390592	0.78212345	0.14731829	0.029742147	1.4342009	0.033396631	-0.078927027	0.69604002	0.15345895	0.064632797	1.4515295	0.45504519	-0.15754619	1.0276391	0.43275395	0.12381332	1.4696284	0.43356543	-0.036097386	1.0517876	0.42054901	-0.0014587297	1.3002081	0.8030411	-0.21379181	1.1740351	0.81176302	0.16031406	1.3256181	0.90483348	-0.12948986	1.2977378	0.89253438	0.10353215	1.1025259	0.91489018	-0.064064303	1.1963559	1.3742012	-0.18632983	1.1956493	1.3700797	0.13649756	1.1107161	1.3928787	-0.02953385	1.0371647	1.0788415	-0.25712608	1.24752	1.012976	0.16827194	1.0781633	0.84494471	-0.29998309	1.4865429	0.94759723	0.19070117
464	1.852	1.6327618	0.047018985	-0.10257723	0.83737357	0.036789485	0.064982287	1.4967624	0.0655321	-0.12517767	0.75340163	0.14416135	0.11124665	1.5110822	0.091067413	-0.04366104	0.78807957	0.14890154	0.030055729	1.4348355	0.033854684	-0.078873981	0.7019437	0.15745756	0.063662339	1.457702	0.45545564	-0.15816421	1.0354421	0.43276727	0.12356118	1.4751414	0.43443002	-0.036526469	1.0600552	0.4198475	-0.0014418375	1.3077424	0.80466745	-0.21465005	1.1814261	0.81118961	0.15971001	1.3328295	0.90561004	-0.12975697	1.3039296	0.89239409	0.10249398	1.1094955	0.91555954	-0.064696617	1.2024558	1.3745013	-0.18753979	1.2024	1.3708999	0.13517289	1.1171552	1.3931651	-0.030605425	1.0442439	1.0783935	-0.25768575	1.2524798	1.0133893	0.16544335	1.0864336	0.84468113	-0.30052112	1.4906386	0.94657492	0.18932052
465	1.856	1.6339649	0.045867722	-0.10232653	0.83851267	0.036682793	0.065081681	1.4976875	0.06552798	-0.12492379	0.75837235	0.14694696	0.11096984	1.5121207	0.0908174	-0.043384071	0.79433884	0.15036379	0.03027718	1.4353557	0.034223173	-0.078727266	0.70820627	0.16140393	0.062609973	1.4635936	0.45570359	-0.15868253	1.0434598	0.43266273	0.12335747	1.4801438	0.43524143	-0.037202461	1.0686384	0.41894057	-0.0013080115	1.3151104	0.80623803	-0.215507	1.1884959	0.81062543	0.15898587	1.3400045	0.90645218	-0.13005777	1.3098364	0.89229614	0.10148774	1.1168734	0.91609928	-0.065169272	1.2085736	1.3748029	-0.18874006	1.2091195	1.3717069	0.13383401	1.1235637	1.3934457	-0.031684695	1.0513686	1.0779421	-0.25823728	1.2573234	1.0138084	0.16268548	1.0948117	0.84443499	-0.3010582	1.4946641	0.94547425	0.18795251
466	1.86	1.6349598	0.04496128	-0.10215186	0.83980257	0.036550451	0.065200002	1.4983768	0.065503647	-0.12468274	0.76367133	0.14963233	0.11070007	1.5128552	0.090522554	-0.043099894	0.80088141	0.15170154	0.030441529	1.435757	0.034495896	-0.078541299	0.7147974	0.16529595	0.061533242	1.4691965	0.45578521	-0.15909647	1.0516971	0.4324295	0.1231896	1.4850471	0.4359896	-0.037988388	1.0775328	0.4178001	-0.0010564337	1.3223165	0.80772779	-0.21637349	1.1953967	0.81005746	0.15818164	1.3471273	0.90734053	-0.13041536	1.3154873	0.89223759	0.10051323	1.1245315	0.91659046	-0.065558031	1.2147048	1.3751085	-0.18992845	1.21582	1.3724827	0.13248484	1.1299451	1.3937131	-0.032779891	1.0585434	1.0774878	-0.25878983	1.2617715	1.0142689	0.16009905	1.1032877	0.84420592	-0.30159715	1.4986237	0.94429158	0.18660559
467	1.864	1.6357898	0.044241636	-0.10194512	0.84124403	0.036365252	0.065303077	1.4988992	0.065453611	-0.12446106	0.76929897	0.15223384	0.11048276	1.5131391	0.090184682	-0.042796954	0.80766093	0.15290157	0.030611056	1.4360573	0.034684009	-0.078345893	0.72167334	0.169145	0.060484138	1.4745121	0.45570949	-0.15940894	1.0601711	0.43208223	0.12308986	1.4902414	0.436644	-0.038683576	1.0867423	0.41640271	-0.00070519101	1.3293643	0.80912042	-0.21725871	1.202193	0.80947717	0.15732223	1.3541848	0.90827753	-0.13083885	1.3209123	0.89221552	0.099569633	1.1322016	0.91710433	-0.065975116	1.2208422	1.3754255	-0.19110103	1.2225054	1.3732132	0.13113961	1.1363003	1.3939587	-0.03388039	1.0657666	1.0770311	-0.25934822	1.2657597	1.0147866	0.15772332	1.111869	0.84398523	-0.30214128	1.5025283	0.94302461	0.18528334
468	1.868	1.6365067	0.043614275	-0.10162229	0.84283911	0.036120547	0.065368452	1.4993384	0.065391477	-0.124238	0.7752071	0.15477135	0.11035285	1.5129952	0.089815784	-0.042455298	0.81461531	0.15396254	0.030871651	1.4362875	0.034813409	-0.078158841	0.72877882	0.17297432	0.059505524	1.4795529	0.45549869	-0.15962789	1.0689304	0.43162867	0.12310018	1.4957225	0.43719024	-0.039212165	1.0962731	0.41473581	-0.00028540463	1.3362597	0.81041005	-0.21817036	1.2089354	0.80887187	0.1564076	1.3611548	0.90927756	-0.13132391	1.3261421	0.8922269	0.098655827	1.1396727	0.91765117	-0.066485627	1.2269804	1.3757577	-0.19225371	1.229168	1.3738923	0.12981922	1.1426231	1.3941778	-0.034972862	1.0730317	1.076567	-0.25991496	1.269578	1.015329	0.15546788	1.1205916	0.84376045	-0.30270039	1.5063987	0.94167338	0.18398424
469	1.872	1.637156	0.043032387	-0.10117557	0.84457075	0.035845855	0.065385545	1.4997523	0.065335141	-0.1239905	0.78131149	0.15725317	0.11032491	1.5127176	0.08945439	-0.042082326	0.82170639	0.15490829	0.031337692	1.4364833	0.034917148	-0.077998837	0.73605877	0.17681907	0.058636571	1.4843351	0.45518506	-0.1597662	1.0779882	0.43106601	0.12321594	1.5012231	0.43762905	-0.039598883	1.1061116	0.41280442	0.00017812038	1.3430136	0.81160098	-0.21911252	1.2156947	0.80823623	0.15542585	1.3680088	0.91034858	-0.13186231	1.3312079	0.89226863	0.097770626	1.1469431	0.91818484	-0.067061071	1.2331195	1.376101	-0.19338336	1.2357919	1.37452	0.12853821	1.1489028	1.3943769	-0.036056875	1.0803317	1.0760857	-0.26049492	1.2735904	1.015855	0.15320262	1.1295062	0.84352409	-0.30329276	1.5102516	0.94024236	0.18270856
